<svg xmlns="http://www.w3.org/2000/svg" data-name="Layer 1" viewBox="0 0 64 64" x="0px" y="0px"><path d="M43,11.09A1,1,0,0,0,42,11l-4.79,2.34H35V7.25a1,1,0,0,0-1-1H30a1,1,0,0,0-1,1v6.13H26.44L21.65,11a1,1,0,0,0-1,.05,1,1,0,0,0-.47.85v7.62a1,1,0,0,0,.47.85,1,1,0,0,0,.53.15,1,1,0,0,0,.44-.1l4.79-2.33h1.39l-5,28.68a1.11,1.11,0,0,0,0,.17V57.79a1,1,0,0,0,1,1H40a1,1,0,0,0,1-1V46.17A1,1,0,0,0,41,46L36.1,18.13h1.13L42,20.46a1,1,0,0,0,.44.1,1,1,0,0,0,.53-.15,1,1,0,0,0,.47-.85V11.94A1,1,0,0,0,43,11.09ZM31,8.25h2V12.5H31Zm8,48.54H24.82V47.07l4.86-27.94h4.56L39,46.26ZM22.21,13.54l3,1.46v1.5l-3,1.46Zm5,1.84h9.25v.75H27.21ZM41.46,18l-3-1.46V15l3-1.46Z"></path><path d="M50.58,7.83a1,1,0,1,0-1.31,1.51,8.62,8.62,0,0,1,.87,12.17,1,1,0,0,0,.1,1.41,1,1,0,0,0,.65.25,1,1,0,0,0,.76-.35A10.63,10.63,0,0,0,50.58,7.83Z"></path><path d="M50.85,15.34a7.2,7.2,0,0,0-2.49-5,1,1,0,1,0-1.3,1.52,5.25,5.25,0,0,1,.52,7.4,1,1,0,0,0,.1,1.41,1,1,0,0,0,.66.25,1,1,0,0,0,.75-.35A7.22,7.22,0,0,0,50.85,15.34Z"></path><path d="M46.41,12.63a1,1,0,0,0-1.31,1.52,2.23,2.23,0,0,1,.77,1.54,2.29,2.29,0,0,1-.55,1.64A1,1,0,0,0,46.07,19a1,1,0,0,0,.76-.34,4.27,4.27,0,0,0-.42-6Z"></path><path d="M11.77,15.25a8.62,8.62,0,0,1,3-5.91,1,1,0,0,0-1.31-1.51,10.63,10.63,0,0,0-1.07,15,1,1,0,0,0,.76.35,1,1,0,0,0,.65-.25,1,1,0,0,0,.1-1.41A8.59,8.59,0,0,1,11.77,15.25Z"></path><path d="M15.15,15.48a5.22,5.22,0,0,1,1.79-3.59,1,1,0,1,0-1.3-1.52,7.24,7.24,0,0,0-.73,10.23,1,1,0,0,0,.75.35,1,1,0,0,0,.66-.25,1,1,0,0,0,.1-1.41A5.2,5.2,0,0,1,15.15,15.48Z"></path><path d="M19,12.73a1,1,0,0,0-1.41-.1,4.27,4.27,0,0,0-.42,6,1,1,0,0,0,.76.34,1,1,0,0,0,.75-1.65,2.29,2.29,0,0,1-.55-1.64,2.23,2.23,0,0,1,.77-1.54A1,1,0,0,0,19,12.73Z"></path><path d="M25.21,7.12l2.25,1a1,1,0,0,0,.42.09,1,1,0,0,0,.91-.58,1,1,0,0,0-.49-1.33l-2.25-1a1,1,0,0,0-.84,1.82Z"></path><path d="M27.42,9.32l-2.25,1.17a1,1,0,1,0,.92,1.77l2.25-1.16a1,1,0,0,0-.92-1.78Z"></path><path d="M36.09,8.29a1.06,1.06,0,0,0,.42-.09l2.25-1a1,1,0,0,0-.84-1.82l-2.25,1a1,1,0,0,0-.49,1.33A1,1,0,0,0,36.09,8.29Z"></path><path d="M36.55,9.36a1,1,0,0,0-.92,1.78l2.25,1.16a.93.93,0,0,0,.46.12,1,1,0,0,0,.46-1.89Z"></path></svg>
